<svg width="182" height="182" viewBox="0 0 182 182" fill="none" xmlns="http://www.w3.org/2000/svg">
<g filter="url(#filter0_d_1014_3596)">
<rect x="35" y="35" width="96" height="96" rx="48" fill="#25D366"/>
<path fill-rule="evenodd" clip-rule="evenodd" d="M102.841 63.1376C100.253 60.5477 97.1771 58.4954 93.7921 57.0988C90.4071 55.7022 86.7792 54.989 83.1175 55.0001C67.75 55.0001 55.24 67.4476 55.2337 82.7501C55.227 87.6227 56.5114 92.4101 58.9562 96.625L55 111L69.7812 107.141C73.8727 109.358 78.4529 110.518 83.1062 110.516H83.1175C98.4837 110.516 110.992 98.0675 111 82.7663C111.009 79.117 110.293 75.5023 108.892 72.1325C107.491 68.7627 105.435 65.7051 102.841 63.1376ZM83.1175 105.833H83.1075C78.9592 105.834 74.8863 104.724 71.3125 102.618L70.4662 102.118L61.695 104.408L64.0362 95.8963L63.485 95.0213C61.1655 91.349 59.9366 87.0935 59.9412 82.7501C59.9412 70.0338 70.3425 59.6876 83.1262 59.6876C89.2587 59.6767 95.1444 62.102 99.4888 66.4303C103.833 70.7585 106.28 76.6351 106.292 82.7676C106.287 95.485 95.8912 105.833 83.1175 105.833ZM95.8287 88.5588C95.1324 88.2113 91.7037 86.5338 91.0687 86.3026C90.4337 86.0713 89.9649 85.9551 89.5012 86.6501C89.0374 87.3451 87.7012 88.9001 87.2949 89.3688C86.8887 89.8376 86.4825 89.8888 85.7862 89.5413C85.09 89.1938 82.8437 88.4626 80.1825 86.1001C78.1112 84.2613 76.7137 81.9913 76.3075 81.2976C75.9012 80.6038 76.2637 80.2276 76.6125 79.8826C76.9262 79.5713 77.3087 79.0726 77.6575 78.6676C78.0062 78.2626 78.1225 77.9726 78.3537 77.5101C78.585 77.0476 78.47 76.6426 78.2962 76.2963C78.1225 75.9501 76.7287 72.5363 76.1487 71.1476C75.5825 69.7951 75.0087 69.9788 74.5812 69.9576C74.175 69.9376 73.7062 69.9326 73.245 69.9326C72.8924 69.9418 72.5454 70.0235 72.2258 70.1728C71.9062 70.3221 71.6208 70.5356 71.3875 70.8001C70.7487 71.4951 68.9487 73.1751 68.9487 76.5851C68.9487 79.9951 71.4487 83.2951 71.7937 83.7576C72.1387 84.2201 76.7062 91.2238 83.695 94.2275C84.9927 94.7833 86.3187 95.2706 87.6674 95.6875C89.3362 96.215 90.8549 96.1413 92.0549 95.9625C93.3937 95.7638 96.1799 94.285 96.7587 92.665C97.3374 91.045 97.3387 89.6576 97.1649 89.3688C96.9912 89.0801 96.5262 88.9051 95.8287 88.5588Z" fill="white"/>
</g>
<defs>
<filter id="filter0_d_1014_3596" x="0" y="0" width="182" height="182" filterUnits="userSpaceOnUse" color-interpolation-filters="sRGB">
<feFlood flood-opacity="0" result="BackgroundImageFix"/>
<feColorMatrix in="SourceAlpha" type="matrix" values="0 0 0 0 0 0 0 0 0 0 0 0 0 0 0 0 0 0 127 0" result="hardAlpha"/>
<feMorphology radius="3" operator="dilate" in="SourceAlpha" result="effect1_dropShadow_1014_3596"/>
<feOffset dx="8" dy="8"/>
<feGaussianBlur stdDeviation="20"/>
<feComposite in2="hardAlpha" operator="out"/>
<feColorMatrix type="matrix" values="0 0 0 0 0.145098 0 0 0 0 0.827451 0 0 0 0 0.4 0 0 0 0.25 0"/>
<feBlend mode="normal" in2="BackgroundImageFix" result="effect1_dropShadow_1014_3596"/>
<feBlend mode="normal" in="SourceGraphic" in2="effect1_dropShadow_1014_3596" result="shape"/>
</filter>
</defs>
</svg>
