<svg width="64" height="64" viewBox="0 0 64 64" fill="none" xmlns="http://www.w3.org/2000/svg">
<path d="M31.9998 33.334C29.5245 33.334 27.1505 34.3173 25.4002 36.0677C23.6498 37.818 22.6665 40.192 22.6665 42.6673C22.6665 45.1427 23.6498 47.5166 25.4002 49.267C27.1505 51.0173 29.5245 52.0007 31.9998 52.0007C34.4752 52.0007 36.8492 51.0173 38.5995 49.267C40.3498 47.5166 41.3332 45.1427 41.3332 42.6673C41.3332 40.192 40.3498 37.818 38.5995 36.0677C36.8492 34.3173 34.4752 33.334 31.9998 33.334ZM27.9998 42.6673C27.9998 41.6065 28.4213 40.589 29.1714 39.8389C29.9216 39.0887 30.939 38.6673 31.9998 38.6673C33.0607 38.6673 34.0781 39.0887 34.8283 39.8389C35.5784 40.589 35.9998 41.6065 35.9998 42.6673C35.9998 43.7282 35.5784 44.7456 34.8283 45.4957C34.0781 46.2459 33.0607 46.6673 31.9998 46.6673C30.939 46.6673 29.9216 46.2459 29.1714 45.4957C28.4213 44.7456 27.9998 43.7282 27.9998 42.6673Z" fill="#212121"/>
<path d="M46.736 13.6431L38.2587 1.75781L7.088 26.6591L5.36 26.6405V26.6671H4V58.6671H60V26.6671H57.4347L52.3307 11.7365L46.736 13.6431ZM51.8 26.6671H25.0587L44.976 19.8778L49.0347 18.5791L51.8 26.6671ZM41.4667 15.4405L20.9067 22.4485L37.1893 9.44048L41.4667 15.4405ZM9.33333 48.4511V36.8778C10.4584 36.4791 11.4803 35.8344 12.3245 34.9906C13.1688 34.1469 13.814 33.1253 14.2133 32.0005H49.7867C50.1858 33.1257 50.831 34.1477 51.6752 34.9919C52.5194 35.8362 53.5414 36.4814 54.6667 36.8805V48.4538C53.5414 48.8529 52.5194 49.4981 51.6752 50.3424C50.831 51.1866 50.1858 52.2086 49.7867 53.3338H14.2187C13.8192 52.2076 13.1732 51.1848 12.3281 50.3401C11.4829 49.4954 10.4597 48.85 9.33333 48.4511Z" fill="#212121"/>
</svg>
