<svg width="58" height="58" viewBox="0 0 58 58" fill="none" xmlns="http://www.w3.org/2000/svg">
<path d="M12.6875 27.1875H48.9375C49.4182 27.1875 49.8792 27.3785 50.2191 27.7184C50.559 28.0583 50.75 28.5193 50.75 29C50.75 29.4807 50.559 29.9417 50.2191 30.2816C49.8792 30.6215 49.4182 30.8125 48.9375 30.8125H12.6875C12.2068 30.8125 11.7458 30.6215 11.4059 30.2816C11.066 29.9417 10.875 29.4807 10.875 29C10.875 28.5193 11.066 28.0583 11.4059 27.7184C11.7458 27.3785 12.2068 27.1875 12.6875 27.1875Z" fill="#212121" fill-opacity="0.54"/>
<path d="M13.4377 29.0003L28.4706 44.0296C28.8109 44.3699 29.0021 44.8315 29.0021 45.3128C29.0021 45.7941 28.8109 46.2557 28.4706 46.5961C28.1302 46.9364 27.6686 47.1276 27.1873 47.1276C26.706 47.1276 26.2444 46.9364 25.9041 46.5961L9.59157 30.2836C9.42278 30.1152 9.28886 29.9152 9.19749 29.695C9.10612 29.4748 9.05908 29.2387 9.05908 29.0003C9.05908 28.7619 9.10612 28.5259 9.19749 28.3057C9.28886 28.0855 9.42278 27.8855 9.59157 27.7171L25.9041 11.4046C26.2444 11.0642 26.706 10.873 27.1873 10.873C27.6686 10.873 28.1302 11.0642 28.4706 11.4046C28.8109 11.7449 29.0021 12.2065 29.0021 12.6878C29.0021 13.1691 28.8109 13.6307 28.4706 13.9711L13.4377 29.0003Z" fill="#212121" fill-opacity="0.54"/>
</svg>
