<svg width="220" height="220" viewBox="0 0 220 220" fill="none" xmlns="http://www.w3.org/2000/svg">
<path d="M137.5 110C137.5 117.293 134.603 124.288 129.445 129.445C124.288 134.603 117.293 137.5 110 137.5C102.707 137.5 95.7118 134.603 90.5546 129.445C85.3973 124.288 82.5 117.293 82.5 110C82.5 102.707 85.3973 95.7118 90.5546 90.5546C95.7118 85.3973 102.707 82.5 110 82.5C117.293 82.5 124.288 85.3973 129.445 90.5546C134.603 95.7118 137.5 102.707 137.5 110Z" stroke="#CD373B" stroke-width="20" stroke-linecap="round" stroke-linejoin="round"/>
<path d="M18.3335 110.001C33.0002 72.4448 67.2468 45.834 110 45.834C152.753 45.834 187 72.4448 201.667 110.001C187 147.556 152.753 174.167 110 174.167C67.2468 174.167 33.0002 147.556 18.3335 110.001Z" stroke="#CD373B" stroke-width="20" stroke-linecap="round" stroke-linejoin="round"/>
</svg>
