<svg width="220" height="187" viewBox="0 0 220 187" fill="none" xmlns="http://www.w3.org/2000/svg">
<path d="M128.75 143.5V134.125C128.75 122.797 141.071 112.082 149.063 104.438C160.328 93.6682 166.25 79.1994 166.25 62.2502C166.25 31.0002 141.356 6.00022 110 6.00022C102.608 5.9796 95.2838 7.42047 88.4499 10.24C81.616 13.0595 75.4069 17.2021 70.1795 22.4295C64.9521 27.6569 60.8095 33.866 57.99 40.6999C55.1705 47.5338 53.7296 54.8576 53.7502 62.2502C53.7502 78.594 59.926 94.0432 70.9377 104.438C78.8869 111.942 91.2502 122.68 91.2502 134.125V143.5M97.5002 181H122.5M91.2502 162.25H128.75M110 143.5V93.5002" stroke="#CD373B" stroke-width="12" stroke-linecap="round" stroke-linejoin="round"/>
</svg>
