<svg width="220" height="206" viewBox="0 0 220 206" fill="none" xmlns="http://www.w3.org/2000/svg">
<g clip-path="url(#clip0_1759_7588)">
<path d="M110 16.8047C113.051 16.8047 116.061 16.9762 119.031 17.3277C120.093 17.4516 121.121 17.7947 122.057 18.3374C122.994 18.8802 123.819 19.6119 124.487 20.4909C125.155 21.3699 125.652 22.3789 125.95 23.4604C126.248 24.5418 126.341 25.6745 126.223 26.7937C126.105 27.9129 125.78 28.9968 125.265 29.9835C124.75 30.9701 124.056 31.8402 123.221 32.544C122.387 33.2478 121.43 33.7716 120.404 34.0855C119.378 34.3994 118.303 34.4972 117.241 34.3734C103.833 32.7926 90.2901 35.6418 78.4859 42.5268C66.6816 49.4118 57.1993 59.9923 51.3503 72.8049C45.5014 85.6174 43.5749 100.029 45.8375 114.046C48.1001 128.062 54.4398 140.992 63.9797 151.046C73.5197 161.099 85.7885 167.78 99.089 170.165C112.389 172.549 126.064 170.519 138.222 164.355C150.38 158.191 160.42 148.198 166.953 135.758C173.486 123.318 176.19 109.046 174.69 94.9162C174.572 93.797 174.665 92.6643 174.963 91.5829C175.261 90.5015 175.758 89.4924 176.426 88.6134C177.774 86.8382 179.737 85.7004 181.882 85.4502C184.027 85.2001 186.178 85.8581 187.863 87.2796C188.697 87.9834 189.391 88.8535 189.906 89.8401C190.421 90.8268 190.747 91.9107 190.864 93.0299C191.19 96.1595 191.361 99.332 191.361 102.547C191.361 149.903 154.935 188.29 110 188.29C65.064 188.29 28.6387 149.903 28.6387 102.547C28.6387 55.1917 65.064 16.8047 110 16.8047ZM109.739 67.1956C110.275 69.3968 109.961 71.7324 108.864 73.689C107.767 75.6456 105.978 77.0633 103.889 77.6305C98.1524 79.2143 93.1582 82.9437 89.8387 88.1229C86.5192 93.3021 85.1012 99.5772 85.8493 105.777C86.5974 111.977 89.4605 117.679 93.9043 121.817C98.3481 125.956 104.069 128.25 110 128.27C115.41 128.268 120.667 126.372 124.945 122.88C129.223 119.388 132.28 114.498 133.635 108.978C134.174 106.776 135.522 104.889 137.381 103.734C139.24 102.579 141.459 102.249 143.549 102.817C145.639 103.386 147.429 104.806 148.525 106.765C149.621 108.725 149.934 111.063 149.395 113.265C146.899 123.348 141.005 132.128 132.814 137.966C124.624 143.803 114.697 146.299 104.888 144.986C95.0793 143.673 86.0595 138.641 79.5137 130.832C72.968 123.022 69.3441 112.967 69.3191 102.547C69.3205 93.0425 72.3179 83.8075 77.8404 76.2929C83.3628 68.7783 91.0975 63.4098 99.8295 61.0307C100.864 60.7497 101.941 60.6862 103 60.8439C104.058 61.0016 105.076 61.3774 105.996 61.9499C106.916 62.5224 107.721 63.2803 108.363 64.1804C109.005 65.0805 109.473 66.105 109.739 67.1956ZM162.917 17.8936C164.402 18.5425 165.671 19.6405 166.565 21.049C167.458 22.4575 167.936 24.1134 167.937 25.8077V41.4986H182.818C184.427 41.4989 185.999 42.002 187.337 42.9442C188.675 43.8863 189.717 45.2253 190.333 46.7918C190.948 48.3584 191.11 50.0821 190.796 51.7451C190.482 53.4081 189.707 54.9357 188.57 56.1348L159.793 86.4277C158.267 88.0358 156.198 88.9395 154.04 88.94H134.408L119.535 104.622C118.008 106.231 115.938 107.135 113.779 107.135C111.62 107.135 109.549 106.231 108.023 104.622C106.496 103.013 105.638 100.831 105.638 98.556C105.638 96.2807 106.496 94.0986 108.023 92.4897L122.903 76.8245V56.1263C122.904 53.8524 123.761 51.6719 125.287 50.0643L154.048 19.7457C155.186 18.5458 156.636 17.7286 158.215 17.3974C159.793 17.0662 161.43 17.2359 162.917 17.885V17.8936ZM151.665 46.5059L139.176 59.676V71.8H150.68L163.177 58.6385H159.801C157.643 58.6385 155.573 57.7352 154.048 56.1272C152.522 54.5192 151.665 52.3383 151.665 50.0643V46.5059Z" fill="#CD373B"/>
</g>
<defs>
<clipPath id="clip0_1759_7588">
<rect width="220" height="205.782" fill="white"/>
</clipPath>
</defs>
</svg>
